<?xml version="1.0" encoding="UTF-8" standalone="no"?>
<!-- Generator: Adobe Illustrator 15.0.0, SVG Export Plug-In . SVG Version: 6.00 Build 0)  -->

<svg
   xmlns:dc="http://purl.org/dc/elements/1.1/"
   xmlns:cc="http://creativecommons.org/ns#"
   xmlns:rdf="http://www.w3.org/1999/02/22-rdf-syntax-ns#"
   xmlns:svg="http://www.w3.org/2000/svg"
   xmlns="http://www.w3.org/2000/svg"
   xmlns:xlink="http://www.w3.org/1999/xlink"
   xmlns:sodipodi="http://sodipodi.sourceforge.net/DTD/sodipodi-0.dtd"
   xmlns:inkscape="http://www.inkscape.org/namespaces/inkscape"
   version="1.0"
   id="Layer_1"
   x="0px"
   y="0px"
   width="562.75049"
   height="497.228"
   viewBox="0 0 562.7505 497.22801"
   enable-background="new 0 0 566.93 566.93"
   xml:space="preserve"
   inkscape:version="0.48.2 r9819"
   sodipodi:docname="AJAX.svg"><metadata
   id="metadata61"><rdf:RDF><cc:Work
       rdf:about=""><dc:format>image/svg+xml</dc:format><dc:type
         rdf:resource="http://purl.org/dc/dcmitype/StillImage" /></cc:Work></rdf:RDF></metadata><defs
   id="defs59" /><sodipodi:namedview
   pagecolor="#ffffff"
   bordercolor="#666666"
   borderopacity="1"
   objecttolerance="10"
   gridtolerance="10"
   guidetolerance="10"
   inkscape:pageopacity="0"
   inkscape:pageshadow="2"
   inkscape:window-width="1280"
   inkscape:window-height="1004"
   id="namedview57"
   showgrid="false"
   fit-margin-top="0"
   fit-margin-left="0"
   fit-margin-right="0"
   fit-margin-bottom="0"
   inkscape:zoom="0.65106758"
   inkscape:cx="264.23439"
   inkscape:cy="113.81579"
   inkscape:window-x="-8"
   inkscape:window-y="-8"
   inkscape:window-maximized="1"
   inkscape:current-layer="g5" />
<g
   id="g3"
   transform="translate(-2.1690016,-60)">
	<g
   id="g5"
   style="stroke:none">
		<defs
   id="defs7">
			<polyline
   id="SVGID_1_"
   points="2.169,60 2.169,557.228 564.93,557.228 564.93,60    " />
		</defs>
		<clipPath
   id="SVGID_2_">
			<use
   xlink:href="#SVGID_1_"
   overflow="visible"
   id="use11"
   style="overflow:visible"
   x="0"
   y="0"
   width="566.92999"
   height="566.92999" />
		</clipPath>
		<polyline
   clip-path="url(#SVGID_2_)"
   clip-rule="evenodd"
   points="119.681,525.969     34.097,525.969 282.332,95.835 529.009,525.969 119.681,525.969   "
   id="polyline13"
   style="fill:#ffc120;fill-opacity:1;fill-rule:evenodd;stroke:none" />
		<path
   clip-path="url(#SVGID_2_)"
   clip-rule="evenodd"
   d="m 527.929,557.228 c 13.28,-0.118 25.399,-7.234 32.03,-18.597 6.614,-11.516 6.614,-25.927 0,-37.442 L 315.852,78.596 C 309.188,67.08 296.917,60 283.635,60 270.302,60 257.964,67.146 251.331,78.697 L 7.141,501.188 c -6.634,11.516 -6.634,25.755 0,37.271 6.632,11.534 19.09,18.65 32.355,18.65 l 488.433,0.119 M 60.986,507.496 H 506.13 L 283.635,122.209 60.986,507.496 z"
   id="path15"
   style="fill:#c0111e;fill-opacity:1;fill-rule:evenodd;stroke:none"
   inkscape:connector-curvature="0" />
	<path
   inkscape:connector-curvature="0"
   id="path3052"
   style="fill:#000000;fill-opacity:1;fill-rule:evenodd;stroke:none"
   d="m 213.27319,311.90932 16.76961,18.60679 0,0 1.21908,-1.12667 1.23437,-1.0988 1.26234,-1.0702 1.26427,-1.05491 1.30552,-1.01233 1.30814,-0.98315 1.33543,-0.96853 1.34933,-0.92527 1.37937,-0.912 1.39459,-0.86679 1.39383,-0.85351 1.42257,-0.81025 1.43778,-0.78042 1.46636,-0.76644 1.46568,-0.72187 1.48104,-0.69529 1.49626,-0.66511 1.50893,-0.62151 1.52417,-0.60698 1.5395,-0.56337 1.55282,-0.53501 1.56811,-0.50731 1.56935,-0.47617 1.5807,-0.44848 1.59801,-0.40488 1.6106,-0.37513 1.61323,-0.33428 1.62596,-0.31629 1.62659,-0.27477 1.63919,-0.23186 1.6558,-0.21732 0,0 1.68306,-0.17303 1.68438,-0.14603 1.69975,-0.10174 1.68438,-0.072 1.68237,-0.0277 1.68438,0 1.68514,0.0346 1.68438,0.072 1.68439,0.10174 1.66908,0.15779 1.66978,0.17303 1.66915,0.21733 1.65448,0.26231 1.65648,0.27338 1.65449,0.33359 1.64119,0.36129 1.64119,0.39034 1.6259,0.41803 1.61129,0.46303 1.6106,0.50522 1.59801,0.53501 1.596,0.56476 1.56742,0.59175 1.57004,0.63744 1.55212,0.68033 1.5528,0.69328 0,0 -7.69352,8.45858 0,0 -0.508,0.76506 -0.18896,0.8814 0.23186,0.88409 0,0 0.49416,0.51978 0.65335,0.31837 0.71053,0.18687 0,0 46.86676,10.33841 0,0 1.00238,0.13011 0.97254,-0.13011 0.81226,-0.53499 0,0 0.47963,-0.85352 0.0554,-0.98306 -0.23117,-0.96854 0,0 -15.34573,-45.57253 0,0 -0.31976,-0.64988 -0.49416,-0.50731 -0.63882,-0.31838 0,0 -0.74048,-0.0277 -0.69723,0.24432 -0.59591,0.4644 0,0 -7.57849,8.15475 0,0 -1.46567,-0.78168 -1.48097,-0.76511 -1.49433,-0.72387 -1.49634,-0.72326 -1.50886,-0.67895 -1.52623,-0.66443 -1.52416,-0.63744 -1.53751,-0.6215 -1.55476,-0.5786 -1.55281,-0.56407 -1.55412,-0.54953 -1.56811,-0.50524 -1.58264,-0.49208 -1.5827,-0.47617 -1.596,-0.43534 -1.59801,-0.41804 -1.596,-0.39035 -1.61261,-0.37719 -1.61129,-0.33152 -1.61061,-0.31837 -1.62659,-0.30315 -1.62589,-0.26022 -1.64112,-0.24709 -1.62596,-0.21663 -1.6412,-0.18826 -1.63919,-0.15848 -1.65649,-0.14534 -1.63918,-0.1149 -1.65648,-0.0865 -1.65449,-0.0623 -1.65587,-0.0484 -1.65441,0 -1.65454,0.0139 -1.65649,0.0277 -1.66909,0.0719 -1.65448,0.0865 -1.65649,0.1322 -1.66909,0.14327 -1.65454,0.17302 0,0 -1.6259,0.18825 -1.6259,0.21664 -1.62652,0.24708 -1.61067,0.27337 -1.598,0.29 -1.61123,0.31837 -1.59801,0.33151 -1.58271,0.37721 -1.5827,0.37512 -1.56741,0.42011 -1.56805,0.43325 -1.5674,0.46372 -1.53946,0.49001 -1.55281,0.50663 -1.52423,0.53499 -1.52416,0.54815 -1.52423,0.57791 -1.49625,0.60905 -1.50963,0.62152 -1.48097,0.63535 -1.48104,0.68033 -1.46768,0.69329 -1.45108,0.70865 -1.43709,0.73847 -1.43785,0.75177 -1.42249,0.78042 -1.40787,0.81025 -1.3946,0.82292 -1.3939,0.8389 -1.36401,0.86679 -1.3647,0.8834 -1.35071,0.90999 -1.33604,0.94065 -1.32083,0.93988 -1.30544,0.98181 -1.29293,0.98377 -1.27762,1.01172 -1.26227,1.04224 -1.24904,1.05498 -1.2197,1.07014 -1.22046,1.09878 z" /><path
   inkscape:connector-curvature="0"
   id="path3054"
   style="fill:#000000;fill-opacity:1;fill-rule:evenodd;stroke:none"
   d="m 259.13759,467.80012 -7.28872,23.27777 0,0 -1.58264,-0.47894 -1.58271,-0.49001 -1.5528,-0.52185 -1.56742,-0.54815 -1.53953,-0.5786 -1.53945,-0.59382 -1.50894,-0.62152 -1.52484,-0.63535 -1.49564,-0.66443 -1.48097,-0.69528 -1.48105,-0.70866 -1.46636,-0.73646 -1.45038,-0.76714 -1.42317,-0.78035 -1.4371,-0.79502 -1.40989,-0.82492 -1.39259,-0.85219 -1.3786,-0.86811 -1.3667,-0.89537 -1.36401,-0.912 -1.33604,-0.92527 -1.32082,-0.96847 -1.30753,-0.96853 -1.29084,-0.99837 -1.27763,-1.01172 -1.26428,-1.04031 -1.24704,-1.05491 -1.22108,-1.08549 -1.21915,-1.09879 -1.19111,-1.11339 -1.17527,-1.14198 -1.16121,-1.15664 -1.14731,-1.17057 -1.1174,-1.19984 -1.10412,-1.21575 -1.08882,-1.22835 -1.07415,-1.24372 -1.04564,-1.27161 -1.03096,-1.2869 -1.00044,-1.31549 0,0 -1.00238,-1.33009 -0.97248,-1.34538 -0.9439,-1.34539 -0.92859,-1.37334 -0.90071,-1.38726 -0.87081,-1.40326 -0.85745,-1.40192 -0.84223,-1.43239 -0.79897,-1.4299 -0.78374,-1.44705 -0.75377,-1.46041 -0.74048,-1.46034 -0.71197,-1.48838 -0.69723,-1.48893 -0.65405,-1.49031 -0.63881,-1.5169 -0.60836,-1.5182 -0.59591,-1.53219 -0.56684,-1.53349 -0.53706,-1.54749 -0.52186,-1.56208 -0.47893,-1.56008 -0.4651,-1.57669 -0.45125,-1.57544 -0.40695,-1.57537 -0.39174,-1.60534 -0.36128,-1.58999 -0.3336,-1.60527 -0.30522,-1.61863 -0.28999,-1.62056 -0.26231,-1.61857 -0.23116,-1.62064 -0.20347,-1.63385 -0.18896,-1.63324 -0.14534,-1.64914 -0.13219,-1.64652 -0.10174,-1.64854 -0.0712,-1.64915 -0.0623,-1.64846 -0.0139,-1.66182 0,0 -11.09213,-2.51532 0,0 -0.75384,-0.29069 -0.61113,-0.50523 -0.33291,-0.70796 0,0 0.0346,-0.72387 0.3336,-0.64989 0.46509,-0.56338 0,0 32.56535,-35.46743 0,0 0.63882,-0.55022 0.74049,-0.33152 0.82692,-0.0277 0,0 0.6973,0.30314 0.53707,0.52047 0.34813,0.68034 0,0 14.27159,46.29579 0,0 0.27477,0.86678 0.14672,0.8668 -0.27684,0.82562 0,0 -0.79903,0.54814 -1.00044,0.0416 -1.01768,-0.18687 0,0 -10.97516,-2.617 0,0 0.20348,1.68971 0.23117,1.66375 0.26231,1.66251 0.30592,1.66376 0.33289,1.64854 0.3772,1.64652 0.40765,1.63385 0.43465,1.62064 0.46578,1.61856 0.50594,1.58998 0.53914,1.59074 0.56476,1.58998 0.61113,1.56208 0.6236,1.56209 0.66649,1.53219 0.69723,1.53349 0.74056,1.5036 0.75578,1.50361 0.79896,1.4883 0.82693,1.46042 0.85752,1.46034 0.88541,1.43182 0.92922,1.41717 0.94398,1.40193 0.97178,1.37335 1.01567,1.3739 0,0 1.03095,1.31555 1.04565,1.3148 1.07421,1.27362 1.10404,1.25693 1.13272,1.22841 1.16058,1.21576 1.17589,1.17188 1.1905,1.15465 1.21914,1.14397 1.24898,1.0988 1.26303,1.08348 1.29215,1.05492 1.30753,1.02701 1.33604,0.99844 1.33411,0.96846 1.3793,0.94057 1.3793,0.92459 1.4092,0.88216 1.43778,0.86679 1.43785,0.82555 1.46568,0.79502 1.48096,0.77966 1.49433,0.73723 1.51157,0.70858 1.52422,0.68033 1.53759,0.6499 1.55475,0.62151 1.58271,0.59383 1.58264,0.54814 1.59607,0.52186 z" /><path
   inkscape:connector-curvature="0"
   id="path3056"
   style="fill:#000000;fill-opacity:1;fill-rule:evenodd;stroke:none"
   d="m 340.0506,481.14436 3.2073,10.29384 0,0 0.15987,0.72317 -0.0277,0.72395 -0.30523,0.6499 0,0 -0.63881,0.50593 -0.78368,0.18686 -0.82762,-0.0623 0,0 -45.6908,-8.89198 0,0 -1.05892,-0.28998 -0.91601,-0.52048 -0.59452,-0.86678 0,0 -0.0719,-1.02634 0.36405,-0.96846 0.62359,-0.8688 0,0 31.67987,-35.94408 0,0 0.53707,-0.60697 0.60905,-0.50663 0.75517,-0.17372 0,0 0.78374,0.27476 0.56753,0.59384 0.3329,0.76643 0,0 3.281,11.10417 0,0 1.40927,-0.9837 1.3793,-1.01172 1.34871,-1.04162 1.33612,-1.08349 1.30745,-1.08543 1.29092,-1.12675 1.24966,-1.15728 1.23368,-1.17194 1.20586,-1.20046 1.18917,-1.22842 1.14731,-1.25624 1.1174,-1.27431 1.10412,-1.30019 1.05887,-1.3168 1.04625,-1.35875 1.00238,-1.3586 0.98715,-1.38864 0.9439,-1.41654 0.92928,-1.43044 0.88542,-1.44713 0.85544,-1.47371 0.82893,-1.49024 0.79697,-1.51688 0.75585,-1.5335 0.74048,-1.54679 0.6973,-1.56215 0,0 0.63882,-1.54679 0.62358,-1.56079 0.58207,-1.57667 0.55022,-1.57538 0.5087,-1.59005 0.47824,-1.60527 0.43534,-1.60597 0.42218,-1.60334 0.3772,-1.62056 0.3329,-1.63323 0.30592,-1.63386 0.27684,-1.63385 0.23185,-1.64854 0.20279,-1.64853 0.17303,-1.64714 0.1315,-1.66383 0.0872,-1.64852 0.0713,-1.66182 0.0346,-1.66175 -0.0138,-1.66375 -0.0484,-1.66183 -0.074,-1.66382 -0.11489,-1.66244 -0.14464,-1.64853 -0.18825,-1.66181 -0.21872,-1.64846 -0.2623,-1.66382 -0.29,-1.64722 -0.31837,-1.64846 -0.36335,-1.63393 0,0 24.2616,-5.0458 0,0 0.34674,1.63385 0.33497,1.63317 0.29068,1.64922 0.27547,1.64852 0.24639,1.64645 0.23185,1.64923 0.19034,1.64846 0.17372,1.66181 0.14464,1.64916 0.11697,1.66182 0.0865,1.66382 0.0623,1.64846 0.0416,1.66183 0.0138,1.66375 -0.0346,1.64721 -0.0277,1.66382 -0.074,1.64645 -0.10174,1.64854 -0.11489,1.66382 -0.14465,1.64714 -0.17511,1.64854 -0.20417,1.63385 -0.21663,1.64852 -0.24638,1.63387 -0.27754,1.63323 -0.30314,1.63386 -0.33568,1.62057 -0.34812,1.61863 -0.39243,1.62057 -0.40488,1.60334 -0.43741,1.60527 -0.4478,1.58997 -0.49416,1.60597 -0.5087,1.57476 -0.53707,1.57737 -0.56683,1.57538 -0.58068,1.56208 -0.61044,1.56015 -0.65196,1.54678 0,0 -0.65336,1.53351 -0.68172,1.51889 -0.71259,1.5036 -0.74049,1.48831 -0.75377,1.48899 -0.77045,1.46035 -0.79697,1.46041 -0.82956,1.43183 -0.84229,1.43177 -0.87004,1.40186 -0.88542,1.40193 -0.914,1.37397 -0.9313,1.35805 -0.95718,1.36068 -0.97179,1.3301 -0.98777,1.31548 -1.01705,1.3022 -1.03103,1.2849 -1.05885,1.27354 -1.07422,1.24372 -1.10413,1.24372 -1.10404,1.21311 -1.1327,1.20046 -1.16059,1.18516 -1.1759,1.15666 -1.19048,1.15727 -1.20387,1.12669 -1.22107,1.11345 -1.24766,1.08543 -1.26435,1.07021 -1.27756,1.0556 -1.30551,1.02632 -1.30746,1.01242 -1.33611,0.99635 -1.34941,0.96854 -1.364,0.95517 -1.3793,0.94058 -1.4092,0.90998 -1.40789,0.88216 -1.42247,0.88139 z" /></g>
	
	
	
	
	
	
	
	
	
	
	
	
	
	
	
	
	
	
	
	
</g>
</svg>